<?xml version="1.0" encoding="UTF-8" standalone="no"?>
<svg
   xmlns:dc="http://purl.org/dc/elements/1.1/"
   xmlns:cc="http://creativecommons.org/ns#"
   xmlns:rdf="http://www.w3.org/1999/02/22-rdf-syntax-ns#"
   xmlns:svg="http://www.w3.org/2000/svg"
   xmlns="http://www.w3.org/2000/svg"
   xmlns:sodipodi="http://sodipodi.sourceforge.net/DTD/sodipodi-0.dtd"
   xmlns:inkscape="http://www.inkscape.org/namespaces/inkscape"
   width="12mm"
   height="11mm"
   viewBox="0 0 12 1095"
   version="1.1"
   id="svg871"
   inkscape:version="1.0.1 (3bc2e813f5, 2020-09-07)"
   sodipodi:docname="noconn.svg">
  <defs
     id="defs865">
    <inkscape:path-effect
       effect="skeletal"
       id="path-effect2185"
       is_visible="true"
       lpeversion="1"
       pattern="M 0,5 C 0,2.24 2.24,0 5,0 7.76,0 10,2.24 10,5 10,7.76 7.76,10 5,10 2.24,10 0,7.76 0,5 Z"
       copytype="single_stretched"
       prop_scale="1"
       scale_y_rel="false"
       spacing="0"
       normal_offset="0"
       tang_offset="0"
       prop_units="false"
       vertical_pattern="false"
       hide_knot="false"
       fuse_tolerance="0" />
    <inkscape:path-effect
       effect="bspline"
       id="path-effect2183"
       is_visible="true"
       lpeversion="1"
       weight="33.333333"
       steps="2"
       helper_size="0"
       apply_no_weight="true"
       apply_with_weight="true"
       only_selected="false" />
    <inkscape:path-effect
       effect="skeletal"
       id="path-effect2179"
       is_visible="true"
       lpeversion="1"
       pattern="M 0,5 C 0,2.24 2.24,0 5,0 7.76,0 10,2.24 10,5 10,7.76 7.76,10 5,10 2.24,10 0,7.76 0,5 Z"
       copytype="single_stretched"
       prop_scale="1"
       scale_y_rel="false"
       spacing="0"
       normal_offset="0"
       tang_offset="0"
       prop_units="false"
       vertical_pattern="false"
       hide_knot="false"
       fuse_tolerance="0" />
    <inkscape:path-effect
       effect="bspline"
       id="path-effect2177"
       is_visible="true"
       lpeversion="1"
       weight="33.333333"
       steps="2"
       helper_size="0"
       apply_no_weight="true"
       apply_with_weight="true"
       only_selected="false" />
    <inkscape:path-effect
       effect="powerstroke"
       id="path-effect2157"
       is_visible="true"
       lpeversion="1"
       offset_points="0.13308341,0.23490483"
       sort_points="true"
       interpolator_type="CentripetalCatmullRom"
       interpolator_beta="0.75"
       start_linecap_type="round"
       linejoin_type="spiro"
       miter_limit="4"
       scale_width="1"
       end_linecap_type="round" />
    <inkscape:path-effect
       effect="simplify"
       id="path-effect2155"
       is_visible="true"
       lpeversion="1"
       steps="1"
       threshold="0.0032025118"
       smooth_angles="0"
       helper_size="0"
       simplify_individual_paths="false"
       simplify_just_coalesce="false"
       step="1" />
    <inkscape:perspective
       sodipodi:type="inkscape:persp3d"
       inkscape:vp_x="-0.90203481 : 537.73617 : 1"
       inkscape:vp_y="0 : 1000 : 0"
       inkscape:vp_z="11.097965 : 537.73617 : 1"
       inkscape:persp3d-origin="5.0979647 : 355.24502 : 1"
       id="perspective1484" />
    <inkscape:path-effect
       effect="bspline"
       id="path-effect1482"
       is_visible="true"
       lpeversion="1"
       weight="33.333333"
       steps="2"
       helper_size="0"
       apply_no_weight="true"
       apply_with_weight="true"
       only_selected="false" />
    <inkscape:path-effect
       effect="bspline"
       id="path-effect1478"
       is_visible="true"
       lpeversion="1"
       weight="33.333333"
       steps="2"
       helper_size="0"
       apply_no_weight="true"
       apply_with_weight="true"
       only_selected="false" />
    <inkscape:path-effect
       effect="bspline"
       id="path-effect1459"
       is_visible="true"
       lpeversion="1"
       weight="33.333333"
       steps="2"
       helper_size="0"
       apply_no_weight="true"
       apply_with_weight="true"
       only_selected="false" />
    <inkscape:path-effect
       effect="bspline"
       id="path-effect1440"
       is_visible="true"
       lpeversion="1"
       weight="33.333333"
       steps="2"
       helper_size="0"
       apply_no_weight="true"
       apply_with_weight="true"
       only_selected="false" />
  </defs>
  <sodipodi:namedview
     id="base"
     pagecolor="#ffffff"
     bordercolor="#666666"
     borderopacity="1.0"
     inkscape:pageopacity="0.0"
     inkscape:pageshadow="2"
     inkscape:zoom="15.839192"
     inkscape:cx="15.994328"
     inkscape:cy="25.277639"
     inkscape:document-units="mm"
     inkscape:current-layer="layer1"
     inkscape:document-rotation="0"
     showgrid="false"
     units="mm"
     inkscape:window-width="1920"
     inkscape:window-height="1057"
     inkscape:window-x="-8"
     inkscape:window-y="-8"
     inkscape:window-maximized="1" />
  <metadata
     id="metadata868">
    <rdf:RDF>
      <cc:Work
         rdf:about="">
        <dc:format>image/svg+xml</dc:format>
        <dc:type
           rdf:resource="http://purl.org/dc/dcmitype/StillImage" />
        <dc:title></dc:title>
      </cc:Work>
    </rdf:RDF>
  </metadata>
  <g
     inkscape:label="Vrstva 1"
     inkscape:groupmode="layer"
     id="layer1">
    <path
       style="fill:#000000;stroke:#ff0000;stroke-width:26.3368px;stroke-linecap:butt;stroke-linejoin:miter;stroke-opacity:1"
       d="m -434.94425,947.7738 c -0.29968,-0.22476 2.30004,-4.34029 7.56406,-11.92345 4.45778,-6.42171 13.94576,-19.84583 24.71039,-31.89729 4.67468,-5.22764 10.01743,-10.47521 16.19077,-15.83704 7.02204,-6.09984 13.67819,-11.37493 21.86125,-17.98566 0,0 2e-5,-10e-6 2e-5,-10e-6 19.66348,-15.88727 47.10811,-38.01288 74.41679,-57.90245 30.25077,-22.02924 64.92565,-45.0035 101.31696,-70.98982 0,0 4e-5,-2e-5 4e-5,-2e-5 43.70088,-31.20423 88.48678,-64.80505 136.990338,-102.51007 21.667598,-16.84416 43.870931,-34.37735 65.980502,-52.44332 2.648181,-2.16417 5.300521,-4.33695 7.95012,-6.51697 14.634733,-12.04106 28.773732,-23.96594 42.363222,-36.37607 9.861737,-9.00915 19.212717,-18.17575 27.745543,-27.91309 5.323908,-6.06538 10.322095,-12.55012 15.616205,-18.91388 9.75806,-11.71998 20.2359,-22.13784 29.48804,-32.96819 12.82793,-15.00329 24.43411,-30.72862 36.64944,-45.53686 11.36645,-13.77765 22.82125,-27.21309 33.86829,-40.00004 11.82933,-13.69301 23.12947,-26.57871 34.54004,-39.13079 8.14985,-8.96985 16.00003,-17.4177 24.51129,-25.3551 6.88292,-6.41218 14.08553,-12.16016 21.31454,-17.33292 17.28439,-12.36388 39.56297,-25.89518 54.23256,-35.38403 16.24512,-10.50905 31.98552,-21.36488 44.61051,-30.15434 0,0 2e-5,-1e-5 2e-5,-1e-5 8.34587,-5.83064 14.39307,-10.67372 22.5275,-14.51468 5.15574,-2.39884 10.05883,-3.32235 14.04959,-5.02659 6.71317,-2.84658 12.29667,-6.36916 17.31259,-8.67208 11.82616,-5.42002 18.60301,-6.70074 18.75483,-6.28324 0.15181,0.4175 -6.47789,2.58056 -17.60977,8.58441 -4.70385,2.53361 -10.00534,6.29335 -16.97793,9.64051 -4.3513,2.07111 -9.30092,3.22703 -13.68427,5.51345 -7.51414,3.84651 -13.02372,8.65965 -21.42989,14.85674 -10e-6,10e-6 -2e-5,10e-6 -2e-5,2e-5 -12.4753,9.2339 -27.82306,20.3817 -44.0452,31.35732 -14.35841,9.71548 -36.82071,23.93956 -53.33474,36.143 -6.9337,5.12309 -13.80491,10.76446 -20.31392,16.9979 -8.14146,7.78736 -15.71867,16.15818 -23.74011,25.18167 -11.21261,12.6202 -22.31385,25.54341 -34.00495,39.3253 -10.90135,12.85145 -22.21832,26.34179 -33.4222,40.11757 -11.91091,14.64466 -23.44389,30.46338 -36.49312,45.89285 -9.53505,11.26426 -19.95707,21.71218 -29.26632,32.99538 -5.11987,6.19988 -10.14951,12.76166 -15.724604,19.16162 -8.839534,10.13167 -18.430318,19.58605 -28.455521,28.76432 -13.764814,12.6065 -28.03042,24.66179 -42.727586,36.75298 -2.661288,2.18941 -5.323048,4.36882 -7.9789,6.53728 -22.2090064,18.13595 -44.494283,35.67871 -66.258185,52.50148 -48.616729,37.58022 -93.869114,71.13183 -137.884624,101.99179 0,0 -4e-5,2e-5 -4e-5,2e-5 -36.8124,25.80892 -71.68808,48.3359 -102.10447,69.79664 -27.06812,19.09505 -55.5403,41.13843 -75.25761,56.28613 -10e-6,0 -2e-5,1e-5 -2e-5,1e-5 -8.44198,6.48703 -15.04195,11.42543 -22.20529,17.28445 -6.19481,5.06655 -11.56063,9.99602 -16.29416,14.91733 -10.53174,10.94072 -21.53486,24.81569 -26.04328,30.35663 -5.81679,7.14895 -9.00904,10.83597 -9.30872,10.61121 z"
       id="path2175"
       inkscape:path-effect="#path-effect2177;#path-effect2179"
       inkscape:original-d="m -434.94425,947.7738 c 11.90269,-15.25574 23.54202,-30.77485 34.91798,-46.55731 9.68568,-6.94193 19.10799,-14.14723 28.26694,-21.61589 27.42179,-21.35253 54.58022,-42.96843 81.47529,-64.84769 31.85583,-20.24401 63.44828,-40.75142 94.77737,-61.52216 50.1462,-36.87164 100.02903,-74.00662 149.648493,-111.405 44.0494152,-35.20886 87.835463,-70.6811 131.358116,-106.4167 8.577182,-11.93022 16.890991,-24.12379 24.941411,-36.58075 10.79419,-10.26745 21.32504,-20.79827 31.59249,-31.59245 8.57715,-11.37597 16.89097,-23.01528 24.94141,-34.91798 29.63879,-34.10035 59.01424,-68.46409 88.12633,-103.09118 10.23993,-9.15896 20.21649,-18.58126 29.92971,-28.26694 20.77074,-12.48448 41.27812,-25.2323 61.52213,-38.24351 15.78248,-10.8217 31.3016,-21.90678 46.55731,-33.25522 6.36018,-4.17066 12.45696,-8.60469 18.29038,-13.30209 4.14315,-0.29089 8.02292,-0.84514 11.63933,-1.66277 6.36015,-3.61641 12.45694,-7.49618 18.29038,-11.63933 6.36015,-1.95363 12.45693,-4.17066 18.29037,-6.65104" />
    <path
       style="fill:#000000;stroke:#ff0000;stroke-width:26.3368px;stroke-linecap:butt;stroke-linejoin:miter;stroke-opacity:1"
       d="m -381.7359,209.50789 c 0.8482,-0.68578 25.27198,29.89688 69.66863,78.85287 24.78774,27.33555 55.03575,58.6963 92.4809,93.86685 39.01806,36.64808 82.05318,74.41191 131.959269,115.65183 35.518449,29.34893 73.497339,59.57816 113.483935,89.48003 12.218815,9.1372 24.387575,18.06637 36.521316,26.79472 48.27985,34.73189 96.25357,66.18645 140.97448,94.15157 38.66176,24.17624 86.75274,52.8579 118.33071,71.99913 33.03955,20.02691 62.34422,38.31996 86.7233,53.82897 0,0 2e-5,2e-5 2e-5,2e-5 17.76942,11.30413 42.51753,27.38033 52.7465,34.01641 10.53572,6.8359 14.27463,9.10897 21.33668,13.85976 0,0 0,10e-6 0,10e-6 1.20268,0.80414 2.24005,1.46729 3.25378,2.38526 0.51787,0.46236 0.92232,1.03713 1.16618,1.68391 0.84836,2.49507 1.02308,5.17397 1.08277,6.31683 0.0741,1.41949 0.0415,2.14506 -0.10431,2.16936 -0.14581,0.0243 -0.40596,-0.66548 -0.76643,-2.0336 -0.25323,-0.96112 -0.89333,-3.83367 -1.82192,-5.80887 -0.14268,-0.31979 -0.41687,-0.60904 -0.77084,-0.87609 -0.93312,-0.70985 -1.90066,-1.19851 -3.20787,-1.94298 0,0 0,0 0,0 -3.80044,-2.14313 -14.79333,-8.32074 -22.10752,-12.61122 -17.13402,-10.04997 -29.26037,-17.48143 -53.83938,-32.25609 0,0 -2e-5,-10e-6 -2e-5,-10e-6 C 380.70427,824.20704 350.93967,806.41462 317.72519,786.94461 284.51509,767.47727 238.83386,740.95549 198.48971,716.14802 153.41387,688.43106 105.14164,657.08758 56.563442,622.24968 44.364278,613.50054 32.136557,604.54167 19.868376,595.36763 -20.285572,565.34085 -58.316363,534.91922 -93.798069,505.31092 c -49.762511,-41.52271 -92.802061,-79.947 -131.428791,-117.15343 -37.12181,-35.75669 -67.05985,-67.91714 -91.21866,-95.92461 -43.35976,-50.2711 -66.13858,-82.03921 -65.29038,-82.72499 z"
       id="path2181"
       inkscape:path-effect="#path-effect2183;#path-effect2185"
       inkscape:original-d="m -381.7359,209.50789 c 42.38665,52.36321 84.50993,104.46306 126.36984,156.29955 107.78859,90.6067 215.313802,180.95006 322.575651,271.03005 91.715219,52.91746 183.167059,105.57155 274.355569,157.96227 47.37491,30.19308 94.48647,60.12279 141.33467,89.7891 1.37189,0.26337 2.4804,0.26337 3.32552,0 0.8175,3.58889 1.37189,6.91441 1.66291,9.97656" />
  </g>
</svg>
